<svg xmlns="http://www.w3.org/2000/svg" xmlns:xlink="http://www.w3.org/1999/xlink" width="1080" zoomAndPan="magnify" viewBox="0 0 810 809.999993" height="1080" preserveAspectRatio="xMidYMid meet" version="1.0"><defs><clipPath id="e4d91e5903"><path d="M 0 12.199219 L 808.273438 12.199219 L 808.273438 810 L 0 810 Z M 0 12.199219 " clip-rule="nonzero"/></clipPath></defs><rect x="-81" width="972" fill="#ffffff" y="-80.999999" height="971.999992" fill-opacity="1"/><rect x="-81" width="972" fill="#ffffff" y="-80.999999" height="971.999992" fill-opacity="1"/><g clip-path="url(#e4d91e5903)"><path fill="#ffffff" d="M 880.683594 389.050781 C 880.683594 396.976562 880.492188 404.894531 880.101562 412.808594 C 879.710938 420.71875 879.128906 428.621094 878.355469 436.503906 C 877.578125 444.390625 876.605469 452.25 875.445312 460.085938 C 874.28125 467.925781 872.929688 475.730469 871.382812 483.5 C 869.835938 491.269531 868.101562 499 866.175781 506.683594 C 864.25 514.371094 862.136719 522.003906 859.839844 529.585938 C 857.539062 537.167969 855.054688 544.6875 852.382812 552.148438 C 849.714844 559.609375 846.863281 567 843.832031 574.316406 C 840.800781 581.636719 837.589844 588.878906 834.203125 596.042969 C 830.816406 603.203125 827.253906 610.277344 823.519531 617.265625 C 819.785156 624.253906 815.882812 631.144531 811.808594 637.941406 C 807.734375 644.738281 803.496094 651.429688 799.09375 658.015625 C 794.691406 664.605469 790.132812 671.082031 785.414062 677.445312 C 780.691406 683.808594 775.820312 690.054688 770.792969 696.175781 C 765.765625 702.300781 760.59375 708.300781 755.273438 714.171875 C 749.953125 720.039062 744.492188 725.777344 738.886719 731.378906 C 733.285156 736.980469 727.550781 742.445312 721.679688 747.765625 C 715.808594 753.085938 709.808594 758.257812 703.683594 763.285156 C 697.5625 768.3125 691.316406 773.183594 684.953125 777.90625 C 678.589844 782.625 672.113281 787.183594 665.523438 791.585938 C 658.9375 795.988281 652.246094 800.226562 645.449219 804.300781 C 638.652344 808.371094 631.761719 812.277344 624.773438 816.011719 C 617.789062 819.746094 610.710938 823.308594 603.550781 826.695312 C 596.386719 830.082031 589.144531 833.292969 581.828125 836.324219 C 574.507812 839.355469 567.117188 842.207031 559.65625 844.875 C 552.195312 847.546875 544.675781 850.03125 537.09375 852.332031 C 529.511719 854.628906 521.878906 856.742188 514.191406 858.667969 C 506.507812 860.59375 498.777344 862.328125 491.007812 863.875 C 483.238281 865.421875 475.433594 866.773438 467.59375 867.9375 C 459.757812 869.097656 451.898438 870.070312 444.011719 870.84375 C 436.128906 871.621094 428.226562 872.203125 420.316406 872.59375 C 412.402344 872.980469 404.484375 873.175781 396.558594 873.175781 C 388.636719 873.175781 380.71875 872.980469 372.804688 872.59375 C 364.890625 872.203125 356.992188 871.621094 349.105469 870.84375 C 341.222656 870.070312 333.359375 869.097656 325.523438 867.9375 C 317.6875 866.773438 309.882812 865.421875 302.113281 863.875 C 294.339844 862.328125 286.613281 860.59375 278.925781 858.667969 C 271.242188 856.742188 263.609375 854.628906 256.027344 852.332031 C 248.445312 850.03125 240.921875 847.546875 233.464844 844.875 C 226.003906 842.207031 218.613281 839.355469 211.292969 836.324219 C 203.972656 833.292969 196.730469 830.082031 189.570312 826.695312 C 182.40625 823.308594 175.332031 819.746094 168.34375 816.011719 C 161.355469 812.277344 154.464844 808.371094 147.667969 804.300781 C 140.875 800.226562 134.183594 795.988281 127.59375 791.585938 C 121.007812 787.183594 114.53125 782.625 108.167969 777.90625 C 101.804688 773.183594 95.558594 768.3125 89.433594 763.285156 C 83.308594 758.257812 77.3125 753.085938 71.441406 747.765625 C 65.570312 742.445312 59.835938 736.980469 54.230469 731.378906 C 48.628906 725.777344 43.167969 720.039062 37.847656 714.171875 C 32.527344 708.300781 27.351562 702.300781 22.324219 696.175781 C 17.300781 690.054688 12.425781 683.808594 7.707031 677.445312 C 2.988281 671.082031 -1.574219 664.605469 -5.976562 658.015625 C -10.378906 651.429688 -14.613281 644.738281 -18.6875 637.941406 C -22.761719 631.144531 -26.664062 624.253906 -30.398438 617.265625 C -34.136719 610.277344 -37.695312 603.203125 -41.082031 596.042969 C -44.472656 588.878906 -47.679688 581.636719 -50.714844 574.316406 C -53.746094 567 -56.597656 559.609375 -59.265625 552.148438 C -61.933594 544.6875 -64.417969 537.167969 -66.71875 529.585938 C -69.019531 522.003906 -71.132812 514.371094 -73.054688 506.683594 C -74.980469 499 -76.71875 491.269531 -78.261719 483.5 C -79.808594 475.730469 -81.164062 467.925781 -82.324219 460.085938 C -83.488281 452.25 -84.457031 444.390625 -85.234375 436.503906 C -86.011719 428.621094 -86.59375 420.71875 -86.980469 412.808594 C -87.371094 404.894531 -87.566406 396.976562 -87.566406 389.050781 C -87.566406 381.128906 -87.371094 373.210938 -86.980469 365.296875 C -86.59375 357.382812 -86.011719 349.484375 -85.234375 341.597656 C -84.457031 333.714844 -83.488281 325.851562 -82.324219 318.015625 C -81.164062 310.179688 -79.808594 302.375 -78.261719 294.605469 C -76.71875 286.832031 -74.980469 279.105469 -73.054688 271.417969 C -71.132812 263.734375 -69.019531 256.097656 -66.71875 248.519531 C -64.417969 240.9375 -61.933594 233.414062 -59.265625 225.953125 C -56.597656 218.496094 -53.746094 211.105469 -50.714844 203.785156 C -47.679688 196.464844 -44.472656 189.222656 -41.082031 182.0625 C -37.695312 174.898438 -34.136719 167.824219 -30.398438 160.835938 C -26.664062 153.847656 -22.761719 146.957031 -18.6875 140.160156 C -14.613281 133.367188 -10.378906 126.675781 -5.976562 120.085938 C -1.574219 113.5 2.988281 107.023438 7.707031 100.660156 C 12.425781 94.296875 17.300781 88.050781 22.324219 81.925781 C 27.351562 75.800781 32.527344 69.804688 37.847656 63.933594 C 43.167969 58.0625 48.628906 52.324219 54.230469 46.722656 C 59.835938 41.121094 65.570312 35.660156 71.441406 30.339844 C 77.3125 25.019531 83.308594 19.84375 89.433594 14.816406 C 95.558594 9.792969 101.804688 4.917969 108.167969 0.199219 C 114.53125 -4.519531 121.007812 -9.082031 127.59375 -13.484375 C 134.183594 -17.886719 140.875 -22.121094 147.667969 -26.195312 C 154.464844 -30.269531 161.355469 -34.171875 168.34375 -37.910156 C 175.332031 -41.644531 182.40625 -45.203125 189.570312 -48.59375 C 196.730469 -51.980469 203.972656 -55.1875 211.292969 -58.222656 C 218.613281 -61.253906 226.003906 -64.105469 233.464844 -66.773438 C 240.921875 -69.441406 248.445312 -71.925781 256.027344 -74.226562 C 263.609375 -76.527344 271.242188 -78.640625 278.925781 -80.566406 C 286.613281 -82.488281 294.339844 -84.226562 302.113281 -85.769531 C 309.882812 -87.316406 317.6875 -88.671875 325.523438 -89.832031 C 333.359375 -90.996094 341.222656 -91.964844 349.105469 -92.742188 C 356.992188 -93.519531 364.890625 -94.101562 372.804688 -94.488281 C 380.71875 -94.878906 388.636719 -95.074219 396.558594 -95.074219 C 404.484375 -95.074219 412.402344 -94.878906 420.316406 -94.488281 C 428.226562 -94.101562 436.128906 -93.519531 444.011719 -92.742188 C 451.898438 -91.964844 459.757812 -90.996094 467.59375 -89.832031 C 475.433594 -88.671875 483.238281 -87.316406 491.007812 -85.769531 C 498.777344 -84.226562 506.507812 -82.488281 514.191406 -80.566406 C 521.878906 -78.640625 529.511719 -76.527344 537.09375 -74.226562 C 544.675781 -71.925781 552.195312 -69.441406 559.65625 -66.773438 C 567.117188 -64.105469 574.507812 -61.253906 581.828125 -58.222656 C 589.144531 -55.1875 596.386719 -51.980469 603.550781 -48.59375 C 610.710938 -45.203125 617.789062 -41.644531 624.773438 -37.910156 C 631.761719 -34.171875 638.652344 -30.269531 645.449219 -26.195312 C 652.246094 -22.121094 658.9375 -17.886719 665.523438 -13.484375 C 672.113281 -9.082031 678.589844 -4.519531 684.953125 0.199219 C 691.316406 4.917969 697.5625 9.792969 703.683594 14.816406 C 709.808594 19.84375 715.808594 25.019531 721.679688 30.339844 C 727.550781 35.660156 733.285156 41.121094 738.886719 46.722656 C 744.492188 52.324219 749.953125 58.0625 755.273438 63.933594 C 760.59375 69.804688 765.765625 75.800781 770.792969 81.925781 C 775.820312 88.050781 780.691406 94.296875 785.414062 100.660156 C 790.132812 107.023438 794.691406 113.5 799.09375 120.085938 C 803.496094 126.675781 807.734375 133.367188 811.808594 140.160156 C 815.882812 146.957031 819.785156 153.847656 823.519531 160.835938 C 827.253906 167.824219 830.816406 174.898438 834.203125 182.0625 C 837.589844 189.222656 840.800781 196.464844 843.832031 203.785156 C 846.863281 211.105469 849.714844 218.496094 852.382812 225.953125 C 855.054688 233.414062 857.539062 240.9375 859.839844 248.519531 C 862.136719 256.097656 864.25 263.734375 866.175781 271.417969 C 868.101562 279.105469 869.835938 286.832031 871.382812 294.605469 C 872.929688 302.375 874.28125 310.179688 875.445312 318.015625 C 876.605469 325.851562 877.578125 333.714844 878.355469 341.597656 C 879.128906 349.484375 879.710938 357.382812 880.101562 365.296875 C 880.492188 373.210938 880.683594 381.128906 880.683594 389.050781 Z M 880.683594 389.050781 " fill-opacity="1" fill-rule="nonzero"/><path fill="#f8fffe" d="M 850.425781 389.050781 C 850.425781 396.480469 850.246094 403.902344 849.878906 411.320312 C 849.515625 418.742188 848.96875 426.144531 848.242188 433.539062 C 847.511719 440.929688 846.605469 448.300781 845.515625 455.648438 C 844.425781 462.996094 843.15625 470.3125 841.707031 477.597656 C 840.257812 484.882812 838.628906 492.128906 836.824219 499.332031 C 835.019531 506.539062 833.039062 513.695312 830.882812 520.800781 C 828.726562 527.910156 826.398438 534.960938 823.894531 541.953125 C 821.394531 548.949219 818.722656 555.875 815.878906 562.738281 C 813.035156 569.601562 810.027344 576.390625 806.851562 583.105469 C 803.675781 589.820312 800.335938 596.453125 796.835938 603.003906 C 793.332031 609.554688 789.671875 616.015625 785.855469 622.386719 C 782.035156 628.757812 778.0625 635.03125 773.9375 641.207031 C 769.808594 647.382812 765.535156 653.453125 761.109375 659.421875 C 756.683594 665.386719 752.117188 671.238281 747.402344 676.980469 C 742.691406 682.722656 737.839844 688.347656 732.851562 693.851562 C 727.863281 699.355469 722.746094 704.730469 717.492188 709.984375 C 712.238281 715.238281 706.863281 720.355469 701.359375 725.34375 C 695.855469 730.332031 690.230469 735.183594 684.488281 739.894531 C 678.75 744.609375 672.894531 749.175781 666.929688 753.601562 C 660.960938 758.027344 654.890625 762.300781 648.714844 766.429688 C 642.539062 770.554688 636.265625 774.527344 629.894531 778.347656 C 623.523438 782.164062 617.0625 785.824219 610.511719 789.328125 C 603.960938 792.828125 597.328125 796.167969 590.613281 799.34375 C 583.898438 802.519531 577.109375 805.527344 570.246094 808.371094 C 563.382812 811.210938 556.457031 813.886719 549.464844 816.386719 C 542.46875 818.890625 535.417969 821.21875 528.308594 823.375 C 521.203125 825.53125 514.046875 827.511719 506.839844 829.316406 C 499.636719 831.121094 492.390625 832.75 485.105469 834.199219 C 477.820312 835.648438 470.503906 836.917969 463.15625 838.007812 C 455.808594 839.097656 448.4375 840.003906 441.046875 840.734375 C 433.65625 841.460938 426.25 842.007812 418.828125 842.371094 C 411.410156 842.738281 403.988281 842.917969 396.558594 842.917969 C 389.132812 842.917969 381.707031 842.738281 374.289062 842.371094 C 366.871094 842.007812 359.464844 841.460938 352.074219 840.734375 C 344.679688 840.003906 337.3125 839.097656 329.964844 838.007812 C 322.617188 836.917969 315.300781 835.648438 308.015625 834.199219 C 300.730469 832.75 293.484375 831.121094 286.277344 829.316406 C 279.074219 827.511719 271.917969 825.53125 264.808594 823.375 C 257.699219 821.21875 250.648438 818.890625 243.65625 816.386719 C 236.664062 813.886719 229.734375 811.210938 222.871094 808.371094 C 216.011719 805.527344 209.222656 802.519531 202.507812 799.34375 C 195.792969 796.167969 189.160156 792.828125 182.609375 789.328125 C 176.058594 785.824219 169.597656 782.164062 163.226562 778.347656 C 156.855469 774.527344 150.582031 770.554688 144.40625 766.429688 C 138.230469 762.300781 132.15625 758.027344 126.191406 753.601562 C 120.226562 749.175781 114.371094 744.609375 108.628906 739.894531 C 102.886719 735.183594 97.265625 730.332031 91.761719 725.34375 C 86.257812 720.355469 80.878906 715.238281 75.628906 709.984375 C 70.375 704.730469 65.253906 699.355469 60.265625 693.851562 C 55.277344 688.347656 50.429688 682.722656 45.714844 676.980469 C 41.003906 671.238281 36.433594 665.386719 32.011719 659.421875 C 27.585938 653.453125 23.308594 647.382812 19.183594 641.207031 C 15.054688 635.03125 11.082031 628.757812 7.265625 622.386719 C 3.445312 616.015625 -0.214844 609.554688 -3.714844 603.003906 C -7.214844 596.453125 -10.554688 589.820312 -13.730469 583.105469 C -16.90625 576.390625 -19.917969 569.601562 -22.757812 562.738281 C -25.601562 555.875 -28.273438 548.949219 -30.777344 541.953125 C -33.277344 534.960938 -35.609375 527.910156 -37.765625 520.800781 C -39.921875 513.695312 -41.902344 506.539062 -43.707031 499.332031 C -45.511719 492.128906 -47.136719 484.882812 -48.585938 477.597656 C -50.035156 470.3125 -51.304688 462.996094 -52.394531 455.648438 C -53.484375 448.300781 -54.394531 440.929688 -55.121094 433.539062 C -55.851562 426.144531 -56.394531 418.742188 -56.761719 411.320312 C -57.125 403.902344 -57.308594 396.480469 -57.308594 389.050781 C -57.308594 381.625 -57.125 374.199219 -56.761719 366.78125 C -56.394531 359.363281 -55.851562 351.957031 -55.121094 344.566406 C -54.394531 337.171875 -53.484375 329.804688 -52.394531 322.457031 C -51.304688 315.109375 -50.035156 307.792969 -48.585938 300.507812 C -47.136719 293.222656 -45.511719 285.976562 -43.707031 278.769531 C -41.902344 271.566406 -39.921875 264.410156 -37.765625 257.300781 C -35.609375 250.191406 -33.277344 243.140625 -30.777344 236.148438 C -28.273438 229.15625 -25.601562 222.226562 -22.757812 215.363281 C -19.917969 208.5 -16.90625 201.714844 -13.730469 195 C -10.554688 188.285156 -7.214844 181.652344 -3.714844 175.101562 C -0.214844 168.550781 3.445312 162.089844 7.265625 155.71875 C 11.082031 149.347656 15.054688 143.074219 19.183594 136.898438 C 23.308594 130.71875 27.585938 124.648438 32.011719 118.683594 C 36.433594 112.71875 41.003906 106.863281 45.714844 101.121094 C 50.429688 95.378906 55.277344 89.757812 60.265625 84.253906 C 65.253906 78.75 70.375 73.371094 75.628906 68.121094 C 80.878906 62.867188 86.257812 57.746094 91.761719 52.757812 C 97.265625 47.769531 102.886719 42.917969 108.628906 38.207031 C 114.371094 33.496094 120.226562 28.925781 126.191406 24.503906 C 132.15625 20.078125 138.230469 15.800781 144.40625 11.675781 C 150.582031 7.546875 156.855469 3.574219 163.226562 -0.242188 C 169.597656 -4.0625 176.058594 -7.722656 182.609375 -11.222656 C 189.160156 -14.726562 195.792969 -18.0625 202.507812 -21.238281 C 209.222656 -24.414062 216.011719 -27.425781 222.871094 -30.265625 C 229.734375 -33.109375 236.664062 -35.78125 243.65625 -38.285156 C 250.648438 -40.785156 257.699219 -43.117188 264.808594 -45.273438 C 271.917969 -47.429688 279.074219 -49.410156 286.277344 -51.214844 C 293.484375 -53.019531 300.730469 -54.644531 308.015625 -56.09375 C 315.300781 -57.542969 322.617188 -58.8125 329.964844 -59.902344 C 337.3125 -60.992188 344.679688 -61.902344 352.074219 -62.628906 C 359.464844 -63.359375 366.871094 -63.902344 374.289062 -64.269531 C 381.707031 -64.632812 389.132812 -64.816406 396.558594 -64.816406 C 403.988281 -64.816406 411.410156 -64.632812 418.828125 -64.269531 C 426.25 -63.902344 433.65625 -63.359375 441.046875 -62.628906 C 448.4375 -61.902344 455.808594 -60.992188 463.15625 -59.902344 C 470.503906 -58.8125 477.820312 -57.542969 485.105469 -56.09375 C 492.390625 -54.644531 499.636719 -53.019531 506.839844 -51.214844 C 514.046875 -49.410156 521.203125 -47.429688 528.308594 -45.273438 C 535.417969 -43.117188 542.46875 -40.785156 549.464844 -38.285156 C 556.457031 -35.78125 563.382812 -33.109375 570.246094 -30.265625 C 577.109375 -27.425781 583.898438 -24.414062 590.613281 -21.238281 C 597.328125 -18.0625 603.960938 -14.726562 610.511719 -11.222656 C 617.0625 -7.722656 623.523438 -4.0625 629.894531 -0.242188 C 636.265625 3.574219 642.539062 7.546875 648.714844 11.675781 C 654.890625 15.800781 660.960938 20.078125 666.929688 24.503906 C 672.894531 28.925781 678.75 33.496094 684.488281 38.207031 C 690.230469 42.917969 695.855469 47.769531 701.359375 52.757812 C 706.863281 57.746094 712.238281 62.867188 717.492188 68.121094 C 722.746094 73.371094 727.863281 78.75 732.851562 84.253906 C 737.839844 89.757812 742.691406 95.378906 747.402344 101.121094 C 752.117188 106.863281 756.683594 112.71875 761.109375 118.683594 C 765.535156 124.648438 769.808594 130.71875 773.9375 136.898438 C 778.0625 143.074219 782.035156 149.347656 785.855469 155.71875 C 789.671875 162.089844 793.332031 168.550781 796.835938 175.101562 C 800.335938 181.652344 803.675781 188.285156 806.851562 195 C 810.027344 201.714844 813.035156 208.5 815.878906 215.363281 C 818.722656 222.226562 821.394531 229.15625 823.894531 236.148438 C 826.398438 243.140625 828.726562 250.191406 830.882812 257.300781 C 833.039062 264.410156 835.019531 271.566406 836.824219 278.769531 C 838.628906 285.976562 840.257812 293.222656 841.707031 300.507812 C 843.15625 307.792969 844.425781 315.109375 845.515625 322.457031 C 846.605469 329.804688 847.511719 337.171875 848.242188 344.566406 C 848.96875 351.957031 849.515625 359.363281 849.878906 366.78125 C 850.246094 374.199219 850.425781 381.625 850.425781 389.050781 Z M 850.425781 389.050781 " fill-opacity="1" fill-rule="nonzero"/></g><path stroke-linecap="butt" transform="matrix(1.891113, 0, 0, 1.891113, -87.565144, -95.07322)" fill="none" stroke-linejoin="round" d="M 255.999345 79.999476 C 173.999857 79.999476 108.00037 141.999995 108.00037 220.000515 C 108.00037 271.999485 135.999339 316.000519 178.00089 342.000004 L 178.00089 367.999489 C 178.00089 377.998973 186.00089 385.998974 196.000375 385.998974 L 316.00038 385.998974 C 325.999864 385.998974 333.999865 377.998973 333.999865 367.999489 L 333.999865 342.000004 C 375.99935 316.000519 404.000384 271.999485 404.000384 220.000515 C 404.000384 141.999995 338.000898 79.999476 255.999345 79.999476 Z M 255.999345 79.999476 " stroke="#16a34a" stroke-width="18" stroke-opacity="1" stroke-miterlimit="4"/><path fill="#16a34a" d="M 300.113281 638.679688 L 493.007812 638.679688 C 493.5625 638.679688 494.121094 638.707031 494.675781 638.761719 C 495.230469 638.816406 495.78125 638.898438 496.328125 639.003906 C 496.875 639.113281 497.414062 639.25 497.945312 639.410156 C 498.480469 639.574219 499.003906 639.761719 499.519531 639.972656 C 500.035156 640.1875 500.539062 640.425781 501.03125 640.6875 C 501.519531 640.953125 502 641.238281 502.460938 641.546875 C 502.925781 641.855469 503.371094 642.1875 503.804688 642.542969 C 504.234375 642.894531 504.648438 643.269531 505.042969 643.664062 C 505.4375 644.058594 505.808594 644.46875 506.164062 644.902344 C 506.515625 645.332031 506.847656 645.78125 507.160156 646.242188 C 507.46875 646.707031 507.753906 647.183594 508.015625 647.675781 C 508.28125 648.167969 508.519531 648.671875 508.730469 649.183594 C 508.945312 649.699219 509.132812 650.222656 509.292969 650.757812 C 509.457031 651.292969 509.589844 651.832031 509.699219 652.378906 C 509.808594 652.925781 509.890625 653.476562 509.945312 654.03125 C 510 654.585938 510.027344 655.140625 510.027344 655.699219 C 510.027344 656.257812 510 656.8125 509.945312 657.367188 C 509.890625 657.921875 509.808594 658.472656 509.699219 659.019531 C 509.589844 659.566406 509.457031 660.105469 509.292969 660.640625 C 509.132812 661.171875 508.945312 661.695312 508.730469 662.210938 C 508.519531 662.726562 508.28125 663.230469 508.015625 663.722656 C 507.753906 664.214844 507.46875 664.691406 507.160156 665.15625 C 506.847656 665.617188 506.515625 666.066406 506.164062 666.496094 C 505.808594 666.925781 505.4375 667.339844 505.042969 667.734375 C 504.648438 668.128906 504.234375 668.5 503.804688 668.855469 C 503.371094 669.207031 502.925781 669.539062 502.460938 669.851562 C 502 670.160156 501.519531 670.445312 501.03125 670.707031 C 500.539062 670.972656 500.035156 671.210938 499.519531 671.421875 C 499.003906 671.636719 498.480469 671.824219 497.945312 671.984375 C 497.414062 672.148438 496.875 672.28125 496.328125 672.390625 C 495.78125 672.5 495.230469 672.582031 494.675781 672.636719 C 494.121094 672.691406 493.5625 672.71875 493.007812 672.71875 L 300.113281 672.71875 C 299.554688 672.71875 299 672.691406 298.445312 672.636719 C 297.890625 672.582031 297.339844 672.5 296.792969 672.390625 C 296.246094 672.28125 295.707031 672.148438 295.171875 671.984375 C 294.640625 671.824219 294.113281 671.636719 293.601562 671.421875 C 293.085938 671.210938 292.582031 670.972656 292.089844 670.707031 C 291.597656 670.445312 291.121094 670.160156 290.65625 669.851562 C 290.195312 669.539062 289.746094 669.207031 289.316406 668.855469 C 288.882812 668.5 288.472656 668.128906 288.078125 667.734375 C 287.683594 667.339844 287.308594 666.925781 286.957031 666.496094 C 286.601562 666.066406 286.269531 665.617188 285.960938 665.15625 C 285.652344 664.691406 285.367188 664.214844 285.101562 663.722656 C 284.839844 663.230469 284.601562 662.726562 284.386719 662.210938 C 284.175781 661.695312 283.988281 661.171875 283.824219 660.640625 C 283.664062 660.105469 283.527344 659.566406 283.421875 659.019531 C 283.3125 658.472656 283.230469 657.921875 283.175781 657.367188 C 283.121094 656.8125 283.09375 656.257812 283.09375 655.699219 C 283.09375 655.140625 283.121094 654.585938 283.175781 654.03125 C 283.230469 653.476562 283.3125 652.925781 283.421875 652.378906 C 283.527344 651.832031 283.664062 651.292969 283.824219 650.757812 C 283.988281 650.222656 284.175781 649.699219 284.386719 649.183594 C 284.601562 648.671875 284.839844 648.167969 285.101562 647.675781 C 285.367188 647.183594 285.652344 646.707031 285.960938 646.242188 C 286.269531 645.78125 286.601562 645.332031 286.957031 644.902344 C 287.308594 644.46875 287.683594 644.058594 288.078125 643.664062 C 288.472656 643.269531 288.882812 642.894531 289.316406 642.542969 C 289.746094 642.1875 290.195312 641.855469 290.65625 641.546875 C 291.121094 641.238281 291.597656 640.953125 292.089844 640.6875 C 292.582031 640.425781 293.085938 640.1875 293.601562 639.972656 C 294.113281 639.761719 294.640625 639.574219 295.171875 639.410156 C 295.707031 639.25 296.246094 639.113281 296.792969 639.003906 C 297.339844 638.898438 297.890625 638.816406 298.445312 638.761719 C 299 638.707031 299.554688 638.679688 300.113281 638.679688 Z M 300.113281 638.679688 " fill-opacity="1" fill-rule="nonzero"/><path fill="#16a34a" d="M 319.023438 684.066406 L 474.09375 684.066406 C 474.652344 684.066406 475.210938 684.09375 475.765625 684.148438 C 476.320312 684.203125 476.867188 684.285156 477.414062 684.390625 C 477.960938 684.5 478.503906 684.636719 479.035156 684.796875 C 479.570312 684.960938 480.09375 685.148438 480.609375 685.359375 C 481.125 685.574219 481.628906 685.8125 482.117188 686.074219 C 482.609375 686.335938 483.085938 686.625 483.550781 686.933594 C 484.015625 687.242188 484.460938 687.574219 484.894531 687.929688 C 485.324219 688.28125 485.734375 688.65625 486.128906 689.050781 C 486.523438 689.445312 486.898438 689.855469 487.253906 690.289062 C 487.605469 690.71875 487.9375 691.167969 488.246094 691.628906 C 488.558594 692.09375 488.84375 692.570312 489.105469 693.0625 C 489.367188 693.554688 489.605469 694.058594 489.820312 694.570312 C 490.035156 695.085938 490.222656 695.613281 490.382812 696.144531 C 490.542969 696.679688 490.679688 697.21875 490.789062 697.765625 C 490.898438 698.3125 490.980469 698.863281 491.035156 699.417969 C 491.089844 699.972656 491.117188 700.527344 491.117188 701.085938 C 491.117188 701.644531 491.089844 702.199219 491.035156 702.753906 C 490.980469 703.308594 490.898438 703.859375 490.789062 704.40625 C 490.679688 704.953125 490.542969 705.492188 490.382812 706.027344 C 490.222656 706.558594 490.035156 707.082031 489.820312 707.597656 C 489.605469 708.113281 489.367188 708.617188 489.105469 709.109375 C 488.84375 709.601562 488.558594 710.078125 488.246094 710.542969 C 487.9375 711.003906 487.605469 711.453125 487.253906 711.882812 C 486.898438 712.3125 486.523438 712.726562 486.128906 713.121094 C 485.734375 713.515625 485.324219 713.886719 484.894531 714.242188 C 484.460938 714.59375 484.015625 714.925781 483.550781 715.238281 C 483.085938 715.546875 482.609375 715.832031 482.117188 716.09375 C 481.628906 716.359375 481.125 716.597656 480.609375 716.808594 C 480.09375 717.023438 479.570312 717.210938 479.035156 717.371094 C 478.503906 717.535156 477.960938 717.667969 477.414062 717.777344 C 476.867188 717.886719 476.320312 717.96875 475.765625 718.023438 C 475.210938 718.078125 474.652344 718.105469 474.09375 718.105469 L 319.023438 718.105469 C 318.464844 718.105469 317.910156 718.078125 317.355469 718.023438 C 316.800781 717.96875 316.25 717.886719 315.703125 717.777344 C 315.15625 717.667969 314.617188 717.535156 314.082031 717.371094 C 313.550781 717.210938 313.027344 717.023438 312.511719 716.808594 C 311.996094 716.597656 311.492188 716.359375 311 716.09375 C 310.507812 715.832031 310.03125 715.546875 309.570312 715.238281 C 309.105469 714.925781 308.65625 714.59375 308.226562 714.242188 C 307.796875 713.886719 307.382812 713.515625 306.988281 713.121094 C 306.59375 712.726562 306.222656 712.3125 305.867188 711.882812 C 305.515625 711.453125 305.183594 711.003906 304.871094 710.542969 C 304.5625 710.078125 304.277344 709.601562 304.015625 709.109375 C 303.75 708.617188 303.511719 708.113281 303.300781 707.597656 C 303.085938 707.082031 302.898438 706.558594 302.738281 706.027344 C 302.574219 705.492188 302.441406 704.953125 302.332031 704.40625 C 302.222656 703.859375 302.140625 703.308594 302.085938 702.753906 C 302.03125 702.199219 302.003906 701.644531 302.003906 701.085938 C 302.003906 700.527344 302.03125 699.972656 302.085938 699.417969 C 302.140625 698.863281 302.222656 698.3125 302.332031 697.765625 C 302.441406 697.21875 302.574219 696.679688 302.738281 696.144531 C 302.898438 695.613281 303.085938 695.085938 303.300781 694.570312 C 303.511719 694.058594 303.75 693.554688 304.015625 693.0625 C 304.277344 692.570312 304.5625 692.09375 304.871094 691.628906 C 305.183594 691.167969 305.515625 690.71875 305.867188 690.289062 C 306.222656 689.855469 306.59375 689.445312 306.988281 689.050781 C 307.382812 688.65625 307.796875 688.28125 308.226562 687.929688 C 308.65625 687.574219 309.105469 687.242188 309.570312 686.933594 C 310.03125 686.625 310.507812 686.335938 311 686.074219 C 311.492188 685.8125 311.996094 685.574219 312.511719 685.359375 C 313.027344 685.148438 313.550781 684.960938 314.082031 684.796875 C 314.617188 684.636719 315.15625 684.5 315.703125 684.390625 C 316.25 684.285156 316.800781 684.203125 317.355469 684.148438 C 317.910156 684.09375 318.464844 684.066406 319.023438 684.066406 Z M 319.023438 684.066406 " fill-opacity="1" fill-rule="nonzero"/><path fill="#16a34a" d="M 345.5 729.453125 L 447.621094 729.453125 C 448.175781 729.453125 448.734375 729.480469 449.289062 729.535156 C 449.84375 729.589844 450.394531 729.671875 450.941406 729.777344 C 451.488281 729.886719 452.027344 730.023438 452.558594 730.183594 C 453.09375 730.347656 453.617188 730.535156 454.132812 730.746094 C 454.648438 730.960938 455.152344 731.199219 455.644531 731.460938 C 456.132812 731.722656 456.613281 732.011719 457.074219 732.320312 C 457.539062 732.628906 457.988281 732.960938 458.417969 733.316406 C 458.847656 733.667969 459.261719 734.042969 459.65625 734.4375 C 460.050781 734.832031 460.421875 735.242188 460.777344 735.675781 C 461.128906 736.105469 461.460938 736.554688 461.769531 737.015625 C 462.082031 737.480469 462.367188 737.957031 462.628906 738.449219 C 462.894531 738.941406 463.132812 739.445312 463.34375 739.957031 C 463.558594 740.472656 463.746094 740.996094 463.90625 741.53125 C 464.070312 742.066406 464.203125 742.605469 464.3125 743.152344 C 464.421875 743.699219 464.503906 744.25 464.558594 744.804688 C 464.613281 745.359375 464.640625 745.914062 464.640625 746.472656 C 464.640625 747.03125 464.613281 747.585938 464.558594 748.140625 C 464.503906 748.695312 464.421875 749.246094 464.3125 749.792969 C 464.203125 750.339844 464.070312 750.878906 463.90625 751.414062 C 463.746094 751.945312 463.558594 752.46875 463.34375 752.984375 C 463.132812 753.5 462.894531 754.003906 462.628906 754.496094 C 462.367188 754.988281 462.082031 755.464844 461.769531 755.929688 C 461.460938 756.390625 461.128906 756.839844 460.777344 757.269531 C 460.421875 757.699219 460.050781 758.113281 459.65625 758.507812 C 459.261719 758.902344 458.847656 759.273438 458.417969 759.628906 C 457.988281 759.984375 457.539062 760.3125 457.074219 760.625 C 456.613281 760.933594 456.132812 761.21875 455.644531 761.484375 C 455.152344 761.746094 454.648438 761.984375 454.132812 762.195312 C 453.617188 762.410156 453.09375 762.597656 452.558594 762.757812 C 452.027344 762.921875 451.488281 763.054688 450.941406 763.164062 C 450.394531 763.273438 449.84375 763.355469 449.289062 763.410156 C 448.734375 763.464844 448.175781 763.492188 447.621094 763.492188 L 345.5 763.492188 C 344.941406 763.492188 344.386719 763.464844 343.832031 763.410156 C 343.277344 763.355469 342.726562 763.273438 342.179688 763.164062 C 341.632812 763.054688 341.09375 762.921875 340.558594 762.757812 C 340.027344 762.597656 339.5 762.410156 338.988281 762.195312 C 338.472656 761.984375 337.96875 761.746094 337.476562 761.484375 C 336.984375 761.21875 336.507812 760.933594 336.042969 760.625 C 335.582031 760.3125 335.132812 759.984375 334.703125 759.628906 C 334.269531 759.273438 333.859375 758.902344 333.464844 758.507812 C 333.070312 758.113281 332.695312 757.699219 332.34375 757.269531 C 331.988281 756.839844 331.65625 756.390625 331.347656 755.929688 C 331.039062 755.464844 330.753906 754.988281 330.488281 754.496094 C 330.226562 754.003906 329.988281 753.5 329.773438 752.984375 C 329.5625 752.46875 329.375 751.945312 329.210938 751.414062 C 329.050781 750.878906 328.914062 750.339844 328.808594 749.792969 C 328.699219 749.246094 328.617188 748.695312 328.5625 748.140625 C 328.507812 747.585938 328.480469 747.03125 328.480469 746.472656 C 328.480469 745.914062 328.507812 745.359375 328.5625 744.804688 C 328.617188 744.25 328.699219 743.699219 328.808594 743.152344 C 328.914062 742.605469 329.050781 742.066406 329.210938 741.53125 C 329.375 740.996094 329.5625 740.472656 329.773438 739.957031 C 329.988281 739.445312 330.226562 738.941406 330.488281 738.449219 C 330.753906 737.957031 331.039062 737.480469 331.347656 737.015625 C 331.65625 736.554688 331.988281 736.105469 332.34375 735.675781 C 332.695312 735.242188 333.070312 734.832031 333.464844 734.4375 C 333.859375 734.042969 334.269531 733.667969 334.703125 733.316406 C 335.132812 732.960938 335.582031 732.628906 336.042969 732.320312 C 336.507812 732.011719 336.984375 731.722656 337.476562 731.460938 C 337.96875 731.199219 338.472656 730.960938 338.988281 730.746094 C 339.5 730.535156 340.027344 730.347656 340.558594 730.183594 C 341.09375 730.023438 341.632812 729.886719 342.179688 729.777344 C 342.726562 729.671875 343.277344 729.589844 343.832031 729.535156 C 344.386719 729.480469 344.941406 729.453125 345.5 729.453125 Z M 345.5 729.453125 " fill-opacity="1" fill-rule="nonzero"/><path stroke-linecap="round" transform="matrix(1.891113, 0, 0, 1.891113, -87.565144, -95.07322)" fill="none" stroke-linejoin="miter" d="M 255.999345 359.999489 L 255.999345 295.999486 " stroke="#16a34a" stroke-width="16" stroke-opacity="1" stroke-miterlimit="4"/><path fill="#16a34a" d="M 423.035156 457.132812 C 423.035156 458 422.992188 458.863281 422.90625 459.726562 C 422.824219 460.589844 422.695312 461.445312 422.527344 462.296875 C 422.359375 463.148438 422.148438 463.988281 421.894531 464.816406 C 421.644531 465.648438 421.351562 466.460938 421.019531 467.261719 C 420.6875 468.066406 420.316406 468.847656 419.910156 469.613281 C 419.5 470.378906 419.054688 471.121094 418.574219 471.839844 C 418.089844 472.5625 417.574219 473.257812 417.027344 473.925781 C 416.476562 474.597656 415.894531 475.238281 415.28125 475.851562 C 414.667969 476.464844 414.027344 477.046875 413.355469 477.597656 C 412.683594 478.148438 411.988281 478.664062 411.269531 479.144531 C 410.546875 479.628906 409.804688 480.074219 409.039062 480.480469 C 408.277344 480.890625 407.492188 481.261719 406.691406 481.59375 C 405.890625 481.925781 405.074219 482.214844 404.246094 482.46875 C 403.414062 482.71875 402.574219 482.929688 401.726562 483.097656 C 400.875 483.269531 400.019531 483.394531 399.15625 483.480469 C 398.292969 483.566406 397.425781 483.605469 396.558594 483.605469 C 395.691406 483.605469 394.828125 483.566406 393.964844 483.480469 C 393.101562 483.394531 392.246094 483.269531 391.394531 483.097656 C 390.542969 482.929688 389.703125 482.71875 388.875 482.46875 C 388.042969 482.214844 387.230469 481.925781 386.429688 481.59375 C 385.625 481.261719 384.84375 480.890625 384.078125 480.480469 C 383.316406 480.074219 382.570312 479.628906 381.851562 479.144531 C 381.128906 478.664062 380.433594 478.148438 379.765625 477.597656 C 379.09375 477.046875 378.453125 476.464844 377.839844 475.851562 C 377.226562 475.238281 376.644531 474.597656 376.09375 473.925781 C 375.542969 473.257812 375.027344 472.5625 374.546875 471.839844 C 374.0625 471.121094 373.621094 470.378906 373.210938 469.613281 C 372.800781 468.847656 372.429688 468.066406 372.097656 467.261719 C 371.769531 466.460938 371.476562 465.648438 371.222656 464.816406 C 370.972656 463.988281 370.761719 463.148438 370.59375 462.296875 C 370.425781 461.445312 370.296875 460.589844 370.210938 459.726562 C 370.125 458.863281 370.085938 458 370.085938 457.132812 C 370.085938 456.265625 370.125 455.398438 370.210938 454.535156 C 370.296875 453.675781 370.425781 452.816406 370.59375 451.964844 C 370.761719 451.117188 370.972656 450.277344 371.222656 449.445312 C 371.476562 448.617188 371.769531 447.800781 372.097656 447 C 372.429688 446.199219 372.800781 445.417969 373.210938 444.652344 C 373.621094 443.886719 374.0625 443.144531 374.546875 442.421875 C 375.027344 441.703125 375.542969 441.007812 376.09375 440.335938 C 376.644531 439.664062 377.226562 439.023438 377.839844 438.410156 C 378.453125 437.796875 379.09375 437.214844 379.765625 436.664062 C 380.433594 436.117188 381.128906 435.601562 381.851562 435.117188 C 382.570312 434.636719 383.316406 434.191406 384.078125 433.78125 C 384.84375 433.375 385.625 433.003906 386.429688 432.671875 C 387.230469 432.339844 388.042969 432.046875 388.875 431.796875 C 389.703125 431.542969 390.542969 431.335938 391.394531 431.164062 C 392.246094 430.996094 393.101562 430.867188 393.964844 430.785156 C 394.828125 430.699219 395.691406 430.65625 396.558594 430.65625 C 397.425781 430.65625 398.292969 430.699219 399.15625 430.785156 C 400.019531 430.867188 400.875 430.996094 401.726562 431.164062 C 402.574219 431.335938 403.414062 431.542969 404.246094 431.796875 C 405.074219 432.046875 405.890625 432.339844 406.691406 432.671875 C 407.492188 433.003906 408.277344 433.375 409.039062 433.78125 C 409.804688 434.191406 410.546875 434.636719 411.269531 435.117188 C 411.988281 435.601562 412.683594 436.117188 413.355469 436.664062 C 414.027344 437.214844 414.667969 437.796875 415.28125 438.410156 C 415.894531 439.023438 416.476562 439.664062 417.027344 440.335938 C 417.574219 441.007812 418.089844 441.703125 418.574219 442.421875 C 419.054688 443.144531 419.5 443.886719 419.910156 444.652344 C 420.316406 445.417969 420.6875 446.199219 421.019531 447 C 421.351562 447.800781 421.644531 448.617188 421.894531 449.445312 C 422.148438 450.277344 422.359375 451.117188 422.527344 451.964844 C 422.695312 452.816406 422.824219 453.675781 422.90625 454.535156 C 422.992188 455.398438 423.035156 456.265625 423.035156 457.132812 Z M 423.035156 457.132812 " fill-opacity="1" fill-rule="nonzero"/><path stroke-linecap="round" transform="matrix(1.891113, 0, 0, 1.891113, -87.565144, -95.07322)" fill="none" stroke-linejoin="round" d="M 184.999083 287.999485 L 213.999859 257.998968 L 244.000377 276.000518 L 295.999346 196.000514 " stroke="#16a34a" stroke-width="16" stroke-opacity="1" stroke-miterlimit="4"/><path stroke-linecap="round" transform="matrix(1.891113, 0, 0, 1.891113, -87.565144, -95.07322)" fill="none" stroke-linejoin="round" d="M 269.999862 178.001029 L 295.999346 196.000514 L 314.000896 223.999482 " stroke="#16a34a" stroke-width="16" stroke-opacity="1" stroke-miterlimit="4"/></svg>